<svg xmlns="http://www.w3.org/2000/svg" width="420" height="620" viewBox="0 0 420 620"><defs><linearGradient id="bg" x1="0" y1="0" x2="1" y2="1"><stop offset="0" stop-color="#ff006e"/><stop offset="1" stop-color="#ff006e"/></linearGradient></defs><rect width="420" height="620" rx="40" fill="#08060d"/><rect x="10" y="10" width="400" height="600" rx="34" fill="url(#bg)" stroke="#8ecae6" stroke-width="6"/><rect x="42" y="82" width="336" height="278" rx="28" fill="rgba(0,0,0,.18)" stroke="rgba(255,255,255,.14)"/><path d="M170 70 L190 150 L272 120 L218 190 L282 248 L202 230 L170 306 L138 230 L58 248 L122 190 L68 120 L150 150 Z" fill="rgba(255,255,255,.20)"/><circle cx="84" cy="334" r="30" fill="rgba(255,255,255,.16)"/><text x="84" y="347" text-anchor="middle" font-size="34">💥</text><text x="42" y="58" fill="#fff" font-family="Arial" font-size="18" font-weight="800">Normale</text><text x="378" y="58" text-anchor="end" fill="#fff" font-family="Arial" font-size="18" font-weight="800">Costo 100</text><text x="210" y="392" text-anchor="middle" fill="#fff" font-family="Arial" font-size="30" font-weight="900">Force Chip</text><rect x="42" y="398" width="104" height="26" rx="13" fill="rgba(255,255,255,.12)"/><text x="94" y="416" text-anchor="middle" fill="#fff" font-family="Arial" font-size="13" font-weight="800">💥 Power</text><foreignObject x="44" y="442" width="332" height="78"><div xmlns="http://www.w3.org/1999/xhtml" style="font:700 17px Arial;color:rgba(255,255,255,.94);line-height:1.32;text-align:center;">+1 Power. Burst e danno puro.</div></foreignObject><rect x="48" y="532" width="324" height="26" rx="13" fill="rgba(255,255,255,.10)"/><rect x="48" y="532" width="324" height="26" rx="13" fill="rgba(255,255,255,.52)"/><text x="210" y="550" text-anchor="middle" fill="#120c18" font-family="Arial" font-size="15" font-weight="900">MAX LV 5</text><text x="210" y="584" text-anchor="middle" fill="rgba(255,255,255,.86)" font-family="Arial" font-size="17" font-weight="800">+1 punti · Unlock 0+</text></svg>
